<svg xmlns="http://www.w3.org/2000/svg" viewBox="0 0 128 128" role="img" aria-label="Message Cleanup">
  <defs>
    <linearGradient id="bg" x1="18" y1="8" x2="112" y2="120" gradientUnits="userSpaceOnUse">
      <stop offset="0" stop-color="#53e4ff"/>
      <stop offset="0.48" stop-color="#6f8dff"/>
      <stop offset="1" stop-color="#a96dff"/>
    </linearGradient>
    <linearGradient id="glass" x1="37" y1="25" x2="89" y2="104" gradientUnits="userSpaceOnUse">
      <stop offset="0" stop-color="#ffffff" stop-opacity="0.9"/>
      <stop offset="0.42" stop-color="#d8f8ff" stop-opacity="0.42"/>
      <stop offset="1" stop-color="#ffffff" stop-opacity="0.16"/>
    </linearGradient>
    <filter id="shadow" x="-20%" y="-20%" width="140%" height="150%">
      <feDropShadow dx="0" dy="14" stdDeviation="12" flood-color="#00122a" flood-opacity="0.45"/>
    </filter>
  </defs>
  <rect width="128" height="128" rx="30" fill="#07101f"/>
  <rect x="8" y="8" width="112" height="112" rx="26" fill="url(#bg)" opacity="0.94"/>
  <path d="M64 21 96 34v27c0 24-13 42-32 50-19-8-32-26-32-50V34l32-13Z" fill="url(#glass)" stroke="#ffffff" stroke-opacity="0.58" stroke-width="5" filter="url(#shadow)"/>
  <path d="M46 53c0-7 6-12 13-12h12c8 0 14 5 14 12v8c0 7-6 12-14 12H61L48 84v-11h-1c-7 0-12-5-12-12v-8Z" fill="#07101f" opacity="0.68"/>
  <path d="M50 55h28M50 64h18" stroke="#c9fbff" stroke-width="6" stroke-linecap="round"/>
  <path d="m78 37 3 8 8 3-8 3-3 8-3-8-8-3 8-3 3-8Z" fill="#ffffff"/>
  <path d="M22 24c18-12 49-15 76 0" fill="none" stroke="#ffffff" stroke-opacity="0.42" stroke-width="5" stroke-linecap="round"/>
</svg>
